# xmcd
#
# Track frame offsets:
#	150
#	33382
#	54450
#	75122
#	95922
#	136117
#	149832
#	164975
#	179027
#	190455
#	203165
#	212557
#	224085
#	244157
#	257115
#	273310
#
# Disc length: 3834
#
# Revision: 1
# Processed by: cddbd v1.5.1PL0 Copyright (c) Steve Scherf et al.
# Submitted via: CDex 1.51
# Normalized: r0:TRMNUM
#
DISCID=040ef810
DTITLE=JUDY BAILEY - NOTWITHSTANDING
DYEAR=1980
DGENRE=Jazz
TTITLE0=Willow Weep For Me
TTITLE1=When I Grow Too Old To Dream
TTITLE2=Waltz For Debby
TTITLE3=Basin St Blues
TTITLE4=Gershwin Medley: Sumertime, I got Plenty of Nothin', It Ain't Necessarily So, There's A boat That's Leaving Soon For New York
TTITLE5=Feelings
TTITLE6=Rainy Days and Mondays
TTITLE7=The Way We Were
TTITLE8=One Moment
TTITLE9=Have I Stayed Too Long At The Fair?
TTITLE10=Damba D'Post
TTITLE11=Cavatina
TTITLE12=Colours Of My Dream
TTITLE13=Rainbow Connection
TTITLE14=Django's Castle
TTITLE15=The Spritely Ones
EXTD=YEAR: 1980
EXTT0=
EXTT1=
EXTT2=
EXTT3=
EXTT4=
EXTT5=
EXTT6=
EXTT7=
EXTT8=
EXTT9=
EXTT10=
EXTT11=
EXTT12=
EXTT13=
EXTT14=
EXTT15=
PLAYORDER=
